# xmcd
#
# Track frame offsets:
#	150
#	20027
#	36910
#	58387
#	77000
#	98430
#	113470
#	134965
#	153385
#	172635
#	189287
#	212487
#	229587
#	249445
#	264817
#
# Disc length: 3805 seconds
#
# Revision: 7
# Processed by: cddbd v1.5.1PL0 Copyright (c) Steve Scherf et al.
# Submitted via: dBpowerAMP V4.0
#
DISCID=b80edb0f
DTITLE=Various Artist - Casa do Samba Vol. 01
DYEAR=1996
DGENRE=Samba
TTITLE0=Alguém Me Avisou - Caetano Veloso e Ivone Lara
TTITLE1=Se Acaso Você Chegasse - Lobão e Elza Soares
TTITLE2=Ex-Amor - Simone e Martinho da Vila
TTITLE3=Enredo do Meu Samba - Sandra de sá e Jorge Aragão
TTITLE4=Beija-me - Eu Quero um Samba - Coisinha do Pai - Elba Ramalho e Jair Rodrigues
TTITLE5=Mineira - Alcione e João Nogueira
TTITLE6=Quantas Lágrimas - Zélia Duncan e Velha Guarda da Portela
TTITLE7=As Rosas Não Falam - Beth Carvalho e Nana Caymmi
TTITLE8=Trem Das Onze - Demônios da Garoa e Ivete Sangalo
TTITLE9=O Sol Nascerá (A Sorrir) - Ivan Lins e Elton Medeiros
TTITLE10=O Amor e a Rosa - Mulher de Trinta - Palhaçada - Zizi Possi e Miltinho
TTITLE11=Bagaço de Laranja - Zeca Pagodinho e Jovelina Pérola Negra
TTITLE12=Testamento de Partideiro - Leci Brandão, Arlindo Cruz e Sombrinha
TTITLE13=Todo Menino É um Rei - Nelson Rufino e Coral de Artistas
TTITLE14=Festa para um Rei Negro - Neguinho da Beija-Flor e Dominguinhos do Estácio
EXTD=Inclui nome dos artistas
EXTT0=
EXTT1=
EXTT2=
EXTT3=
EXTT4=
EXTT5=
EXTT6=
EXTT7=
EXTT8=
EXTT9=
EXTT10=
EXTT11=
EXTT12=
EXTT13=
EXTT14=
PLAYORDER=
